<?xml version="1.0" standalone="no"?>
<!DOCTYPE svg PUBLIC "-//W3C//DTD SVG 20010904//EN"
 "http://www.w3.org/TR/2001/REC-SVG-20010904/DTD/svg10.dtd">
<svg version="1.0" xmlns="http://www.w3.org/2000/svg"
 width="356.000000pt" height="356.000000pt" viewBox="0 0 356.000000 356.000000"
 preserveAspectRatio="xMidYMid meet">
<metadata>
Created by potrace 1.11, written by Peter Selinger 2001-2013
</metadata>
<g transform="translate(0.000000,356.000000) scale(0.100000,-0.100000)"
fill="#000000" stroke="none">
<path d="M3425 3230 c-27 -4 -75 -11 -105 -14 -30 -4 -71 -9 -90 -11 -19 -2
-57 -7 -85 -10 -27 -3 -147 -16 -265 -30 -118 -13 -237 -27 -265 -30 -27 -3
-68 -7 -90 -10 -22 -3 -62 -8 -90 -10 -132 -14 -288 -35 -292 -38 -10 -11 15
-36 79 -82 39 -27 79 -58 89 -67 11 -10 22 -18 25 -18 3 0 62 -42 130 -92 75
-57 129 -105 138 -123 8 -16 17 -64 21 -105 3 -41 8 -86 10 -100 2 -14 9 -77
15 -140 6 -63 13 -128 17 -145 l5 -29 47 50 c45 49 84 96 477 579 103 127 225
276 271 333 l85 102 -39 -1 c-21 -1 -60 -5 -88 -9z"/>
<path d="M1317 2983 c-1 0 -31 -4 -67 -7 -36 -4 -81 -9 -100 -11 -58 -8 -112
-14 -170 -20 -30 -3 -71 -8 -90 -10 -19 -2 -57 -7 -85 -10 -27 -3 -108 -12
-180 -20 -71 -8 -148 -17 -170 -20 -22 -2 -69 -7 -105 -11 -36 -3 -76 -7 -90
-10 -14 -2 -56 -7 -95 -10 -38 -4 -76 -8 -85 -9 -8 -2 -30 -4 -47 -4 -18 -1
-33 -4 -33 -8 0 -5 33 -30 73 -57 93 -63 269 -188 283 -201 6 -5 36 -28 66
-49 31 -22 61 -48 67 -58 11 -18 33 -154 46 -283 8 -90 25 -218 30 -233 5 -15
38 21 215 233 73 88 146 175 162 194 90 108 488 602 488 607 0 4 -109 2 -113
-3z"/>
<path d="M2112 2790 c-28 -26 -29 -80 -4 -103 10 -10 32 -17 48 -17 72 0 99
66 47 115 -34 30 -62 32 -91 5z"/>
<path d="M1742 2754 c-16 -11 -22 -25 -22 -52 1 -53 19 -72 68 -72 51 0 78 31
67 80 -12 54 -68 76 -113 44z"/>
<path d="M1372 2714 c-28 -19 -31 -83 -4 -106 48 -42 112 -15 112 48 0 62 -58
94 -108 58z"/>
<path d="M2430 2600 c-60 -60 18 -161 83 -109 51 39 25 129 -38 129 -14 0 -34
-9 -45 -20z"/>
<path d="M2129 2258 c-51 -57 -110 -121 -130 -143 -21 -22 -47 -52 -58 -66
l-20 -26 46 -47 c26 -25 50 -46 54 -46 4 0 42 39 86 88 43 48 80 89 83 92 3 3
36 41 75 84 l69 79 -49 43 c-27 24 -53 44 -57 44 -3 0 -48 -46 -99 -102z"/>
<path d="M1038 2313 c-10 -2 -18 -14 -18 -25 0 -37 51 -421 57 -431 5 -9 119
-4 129 6 4 3 -10 151 -21 227 -7 50 -19 175 -17 183 1 4 -2 17 -8 27 -9 16
-21 20 -58 19 -26 -1 -55 -3 -64 -6z"/>
<path d="M1732 1804 c-28 -19 -31 -83 -4 -106 47 -41 112 -15 112 46 0 66 -55
97 -108 60z"/>
<path d="M1130 1610 c-36 -36 -24 -95 24 -115 25 -11 35 -11 57 1 44 22 51 65
18 108 -25 32 -70 35 -99 6z"/>
<path d="M1480 1518 c-37 -40 -15 -114 35 -119 35 -3 44 0 65 21 29 29 26 74
-6 99 -34 27 -68 27 -94 -1z"/>
<path d="M1840 1345 c-90 -13 -157 -21 -245 -30 -22 -3 -56 -7 -75 -10 -88
-11 -126 -16 -250 -30 -42 -5 -67 -9 -150 -20 -19 -2 -73 -9 -120 -15 -84 -10
-111 -14 -200 -25 -126 -16 -173 -24 -179 -30 -8 -8 20 -30 151 -123 281 -199
328 -234 328 -245 0 -12 25 -237 35 -307 2 -19 7 -62 11 -94 3 -33 8 -67 9
-75 2 -9 4 -22 4 -30 1 -11 6 -10 22 5 23 20 237 280 464 564 77 96 145 180
150 186 6 6 24 28 40 49 61 79 126 161 140 178 8 9 15 22 15 27 0 6 4 10 9 10
5 0 11 7 15 15 7 19 -36 18 -174 0z"/>
</g>
</svg>
