<?xml version="1.0" encoding="UTF-8"?>
<!-- Generator: Adobe Illustrator 19.1.0, SVG Export Plug-In . SVG Version: 6.00 Build 0)  -->
<svg version="1.1" id="Layer_1" xmlns="http://www.w3.org/2000/svg" xmlns:xlink="http://www.w3.org/1999/xlink" x="0px" y="0px" viewBox="0 0 319.4 271.9" style="enable-background:new 0 0 319.4 271.9;" xml:space="preserve"><script xmlns="" type="text/javascript" charset="utf-8" id="zm-extension"/>
<style type="text/css">
	.st0{display:none;fill:#77787B;}
	.st1{fill:#0078FF;}
	.st2{fill:#00E89D;}
	.st3{fill:#949A9F;}
</style>
<polygon class="st0" points="653.4,277.5 643.2,277.5 643.2,249.3 633.4,277.5 625.6,277.5 615.4,249.3 615.4,277.5 605.2,277.5   605.2,232.1 617.3,232.1 629.5,263.7 641.5,232.1 653.4,232.1 "/>
<rect x="521.9" y="213.1" class="st0" width="16.7" height="86.2"/>
<rect x="462.5" y="213.1" class="st0" width="16.7" height="86.2"/>
<g>
	
		<rect x="60.9" y="56.9" transform="matrix(-0.4988 0.8667 -0.8667 -0.4988 263.6414 18.0388)" class="st1" width="131.4" height="56.6"/>
	
		<rect x="192" y="56.9" transform="matrix(0.4988 -0.8667 0.8667 0.4988 55.2458 266.0309)" class="st1" width="131.4" height="56.6"/>
	<path class="st2" d="M318.7,28.3c0,15.6-12.7,28.3-28.3,28.3c-15.6,0-28.3-12.7-28.3-28.3c0-15.6,12.7-28.3,28.3-28.3   C306.1,0,318.7,12.7,318.7,28.3"/>
	<path class="st2" d="M93.9,170.5c-9.8,0-19.3-5.1-24.6-14.2L3.8,42.4C-4,28.9,0.6,11.6,14.2,3.8C27.8-4,45.1,0.6,52.9,14.2   L118.4,128c7.8,13.6,3.1,30.9-10.4,38.7C103.5,169.3,98.7,170.5,93.9,170.5z"/>
	<path class="st2" d="M224.9,170.5c-9.8,0-19.3-5.1-24.6-14.2L134.8,42.4c-7.8-13.6-3.1-30.9,10.4-38.7c13.6-7.8,30.9-3.1,38.7,10.4   L249.4,128c7.8,13.6,3.1,30.9-10.4,38.7C234.6,169.3,229.7,170.5,224.9,170.5z"/>
	<polygon class="st3" points="53.9,227.1 45.1,255.7 36.2,227.1 28.4,227.1 19.6,255.7 10.7,227.1 0,227.1 15.4,270.7 23.7,270.7    32.3,243.3 41,270.7 49.2,270.7 64.6,227.1  "/>
	<path class="st3" d="M111.2,270.7l-1.7-5.3H94l-1.7,5.3H81.6l15.6-43.6h9.3l15.8,43.6H111.2z M101.8,239.6l-5.4,17.9h10.6   L101.8,239.6z"/>
	<polygon class="st3" points="180.4,227.1 168.7,227.1 159.4,244.3 159.4,244.3 159.4,244.3 150.1,227.1 138.3,227.1 154.3,255.2    154.3,270.7 164.5,270.7 164.5,255.2  "/>
	<polygon class="st3" points="249,270.7 239.2,270.7 239.2,243.7 229.8,270.7 222.3,270.7 212.6,243.7 212.6,270.7 202.8,270.7    202.8,227.1 214.4,227.1 226.1,257.5 237.6,227.1 249,227.1  "/>
	<g>
		<path class="st3" d="M273.3,248.9c0-12,8.6-22.9,23.1-22.9c14.5,0,23,11,23,22.9s-8.6,22.9-23,22.9    C281.9,271.9,273.3,260.9,273.3,248.9 M309.2,248.9c0-7.2-4.9-13.8-12.8-13.8c-8,0-12.8,6.7-12.8,13.8s4.8,13.8,12.8,13.8    C304.3,262.8,309.2,256.1,309.2,248.9"/>
	</g>
</g>
</svg>